# MagicaVoxel @ Ephtracy

# group
o 

# material
mtllib torso.mtl
usemtl palette

# normals
vn 1 0 0
vn -1 0 0
vn 0 0 -1
vn 0 0 1
vn 0 -1 0
vn 0 1 0

# texcoords
vt 0.0332031 0.5
vt 0.0917969 0.5
vt 0.626953 0.5
vt 0.904297 0.5

# verts
v 0.5 -0.5 -0.5
v 0.5 -0.5 0.5
v 0.5 -0.3 -0.5
v 0.5 -0.3 0.5
v 0.5 -0.2 -0.5
v 0.5 -0.2 0.5
v 0.5 0.5 -0.5
v 0.5 0.5 0.5
v -0.4 -0.4 -0.4
v -0.4 -0.4 0.4
v -0.4 -0.3 -0.4
v -0.4 -0.3 0.4
v -0.4 -0.2 -0.4
v -0.4 -0.2 0.4
v -0.4 0.4 -0.4
v -0.4 0.4 0.4
v 0.4 -0.4 -0.4
v 0.4 -0.4 0.4
v 0.4 -0.3 -0.4
v 0.4 -0.3 0.4
v 0.4 -0.2 -0.4
v 0.4 -0.2 0.4
v 0.4 0.4 -0.4
v 0.4 0.4 0.4
v -0.5 -0.5 -0.5
v -0.5 -0.5 0.5
v -0.5 -0.3 -0.5
v -0.5 -0.3 0.5
v -0.5 -0.2 -0.5
v -0.5 -0.2 0.5
v -0.5 0.5 -0.5
v -0.5 0.5 0.5
v 0.5 -0.5 -0.5
v 0.5 -0.3 -0.5
v 0.5 -0.2 -0.5
v 0.5 0.5 -0.5
v 0.4 -0.3 -0.5
v 0.4 -0.2 -0.5
v 0.2 -0.4 -0.5
v 0.2 -0.3 -0.5
v 0.2 0 -0.5
v 0.2 0.1 -0.5
v 0.2 0.4 -0.5
v 0.2 0.5 -0.5
v 0.1 0.1 -0.5
v 0.1 0.2 -0.5
v 0.1 0.3 -0.5
v 0.1 0.4 -0.5
v 0 -0.3 -0.5
v 0 0 -0.5
v -0.1 -0.3 -0.5
v -0.1 0.2 -0.5
v -0.1 0.3 -0.5
v -0.1 0.4 -0.5
v -0.2 -0.4 -0.5
v -0.2 -0.3 -0.5
v -0.2 0.4 -0.5
v -0.2 0.5 -0.5
v -0.4 -0.3 -0.5
v -0.4 -0.2 -0.5
v -0.5 -0.5 -0.5
v -0.5 -0.3 -0.5
v -0.5 -0.2 -0.5
v -0.5 0.5 -0.5
v 0.4 -0.4 0.4
v 0.4 -0.3 0.4
v 0.4 -0.2 0.4
v 0.4 0.4 0.4
v -0.4 -0.4 0.4
v -0.4 -0.3 0.4
v -0.4 -0.2 0.4
v -0.4 0.4 0.4
v 0.4 -0.4 -0.4
v 0.4 -0.3 -0.4
v 0.4 -0.2 -0.4
v 0.4 0.4 -0.4
v 0.2 -0.4 -0.4
v 0.2 -0.3 -0.4
v 0.2 0 -0.4
v 0.2 0.1 -0.4
v 0.1 0.1 -0.4
v 0.1 0.2 -0.4
v 0.1 0.3 -0.4
v 0.1 0.4 -0.4
v 0 -0.3 -0.4
v 0 0 -0.4
v -0.1 -0.3 -0.4
v -0.1 0.2 -0.4
v -0.1 0.3 -0.4
v -0.1 0.4 -0.4
v -0.2 -0.4 -0.4
v -0.2 -0.3 -0.4
v -0.4 -0.4 -0.4
v -0.4 -0.3 -0.4
v -0.4 -0.2 -0.4
v -0.4 0.4 -0.4
v 0.5 -0.5 0.5
v 0.5 -0.3 0.5
v 0.5 -0.2 0.5
v 0.5 0.5 0.5
v -0.5 -0.5 0.5
v -0.5 -0.3 0.5
v -0.5 -0.2 0.5
v -0.5 0.5 0.5
v 0.5 -0.5 -0.5
v -0.5 -0.5 -0.5
v 0.5 -0.5 0.5
v -0.5 -0.5 0.5
v 0.4 0.4 -0.4
v 0.1 0.4 -0.4
v -0.1 0.4 -0.4
v -0.4 0.4 -0.4
v 0.4 0.4 0.4
v -0.4 0.4 0.4
v 0.4 -0.4 -0.4
v 0.2 -0.4 -0.4
v -0.2 -0.4 -0.4
v -0.4 -0.4 -0.4
v 0.4 -0.4 0.4
v -0.4 -0.4 0.4
v 0.5 0.5 -0.5
v 0.2 0.5 -0.5
v -0.2 0.5 -0.5
v -0.5 0.5 -0.5
v 0.2 0.5 -0.4
v -0.2 0.5 -0.4
v 0.5 0.5 0.5
v -0.5 0.5 0.5

# faces
f 3/3/1 2/3/1 1/3/1
f 4/3/1 2/3/1 3/3/1
f 5/4/1 4/4/1 3/4/1
f 6/4/1 4/4/1 5/4/1
f 7/3/1 6/3/1 5/3/1
f 8/3/1 6/3/1 7/3/1
f 11/3/1 10/3/1 9/3/1
f 12/3/1 10/3/1 11/3/1
f 13/4/1 12/4/1 11/4/1
f 14/4/1 12/4/1 13/4/1
f 15/3/1 14/3/1 13/3/1
f 16/3/1 14/3/1 15/3/1
f 17/3/2 18/3/2 19/3/2
f 19/3/2 18/3/2 20/3/2
f 19/4/2 20/4/2 21/4/2
f 21/4/2 20/4/2 22/4/2
f 21/3/2 22/3/2 23/3/2
f 23/3/2 22/3/2 24/3/2
f 25/3/2 26/3/2 27/3/2
f 27/3/2 26/3/2 28/3/2
f 27/4/2 28/4/2 29/4/2
f 29/4/2 28/4/2 30/4/2
f 29/3/2 30/3/2 31/3/2
f 31/3/2 30/3/2 32/3/2
f 37/3/3 34/3/3 33/3/3
f 37/4/3 35/4/3 34/4/3
f 38/3/3 36/3/3 35/3/3
f 38/4/3 35/4/3 37/4/3
f 39/3/3 37/3/3 33/3/3
f 39/3/3 38/3/3 37/3/3
f 40/3/3 38/3/3 39/3/3
f 41/3/3 36/3/3 38/3/3
f 41/3/3 38/3/3 40/3/3
f 42/3/3 36/3/3 41/3/3
f 43/3/3 36/3/3 42/3/3
f 44/3/3 36/3/3 43/3/3
f 45/2/3 42/2/3 41/2/3
f 45/3/3 43/3/3 42/3/3
f 46/3/3 43/3/3 45/3/3
f 47/3/3 43/3/3 46/3/3
f 48/1/3 44/1/3 43/1/3
f 48/3/3 43/3/3 47/3/3
f 49/2/3 40/2/3 39/2/3
f 49/3/3 41/3/3 40/3/3
f 50/2/3 45/2/3 41/2/3
f 50/3/3 41/3/3 49/3/3
f 50/2/3 46/2/3 45/2/3
f 51/2/3 49/2/3 39/2/3
f 51/2/3 50/2/3 49/2/3
f 52/3/3 47/3/3 46/3/3
f 52/2/3 50/2/3 51/2/3
f 52/2/3 46/2/3 50/2/3
f 53/1/3 48/1/3 47/1/3
f 53/3/3 47/3/3 52/3/3
f 54/1/3 44/1/3 48/1/3
f 54/1/3 48/1/3 53/1/3
f 55/3/3 39/3/3 33/3/3
f 55/2/3 51/2/3 39/2/3
f 56/3/3 53/3/3 52/3/3
f 56/2/3 51/2/3 55/2/3
f 56/3/3 52/3/3 51/3/3
f 56/3/3 54/3/3 53/3/3
f 57/1/3 44/1/3 54/1/3
f 57/3/3 54/3/3 56/3/3
f 58/1/3 44/1/3 57/1/3
f 59/3/3 56/3/3 55/3/3
f 59/3/3 57/3/3 56/3/3
f 59/3/3 58/3/3 57/3/3
f 60/3/3 58/3/3 59/3/3
f 61/3/3 55/3/3 33/3/3
f 61/3/3 59/3/3 55/3/3
f 62/4/3 60/4/3 59/4/3
f 62/3/3 59/3/3 61/3/3
f 63/3/3 58/3/3 60/3/3
f 63/4/3 60/4/3 62/4/3
f 64/3/3 58/3/3 63/3/3
f 69/3/3 66/3/3 65/3/3
f 70/4/3 67/4/3 66/4/3
f 70/3/3 66/3/3 69/3/3
f 71/3/3 68/3/3 67/3/3
f 71/4/3 67/4/3 70/4/3
f 72/3/3 68/3/3 71/3/3
f 73/3/4 74/3/4 77/3/4
f 75/3/4 76/3/4 77/3/4
f 74/3/4 75/3/4 77/3/4
f 77/3/4 76/3/4 78/3/4
f 78/3/4 76/3/4 79/3/4
f 79/3/4 76/3/4 80/3/4
f 79/2/4 80/2/4 81/2/4
f 80/3/4 76/3/4 81/3/4
f 81/3/4 76/3/4 82/3/4
f 82/3/4 76/3/4 83/3/4
f 83/3/4 76/3/4 84/3/4
f 77/2/4 78/2/4 85/2/4
f 78/3/4 79/3/4 85/3/4
f 79/2/4 81/2/4 86/2/4
f 85/3/4 79/3/4 86/3/4
f 81/2/4 82/2/4 86/2/4
f 77/2/4 85/2/4 87/2/4
f 85/2/4 86/2/4 87/2/4
f 86/2/4 82/2/4 88/2/4
f 87/2/4 86/2/4 88/2/4
f 82/3/4 83/3/4 88/3/4
f 83/1/4 84/1/4 89/1/4
f 88/3/4 83/3/4 89/3/4
f 89/1/4 84/1/4 90/1/4
f 77/2/4 87/2/4 91/2/4
f 87/3/4 88/3/4 92/3/4
f 91/2/4 87/2/4 92/2/4
f 88/3/4 89/3/4 92/3/4
f 89/3/4 90/3/4 92/3/4
f 91/3/4 92/3/4 93/3/4
f 92/3/4 90/3/4 94/3/4
f 93/3/4 92/3/4 94/3/4
f 94/3/4 90/3/4 95/3/4
f 95/3/4 90/3/4 96/3/4
f 97/3/4 98/3/4 101/3/4
f 98/4/4 99/4/4 102/4/4
f 101/3/4 98/3/4 102/3/4
f 99/3/4 100/3/4 103/3/4
f 102/4/4 99/4/4 103/4/4
f 103/3/4 100/3/4 104/3/4
f 107/3/5 106/3/5 105/3/5
f 108/3/5 106/3/5 107/3/5
f 113/3/5 110/3/5 109/3/5
f 113/3/5 112/3/5 111/3/5
f 113/3/5 111/3/5 110/3/5
f 114/3/5 112/3/5 113/3/5
f 115/3/6 116/3/6 119/3/6
f 117/3/6 118/3/6 119/3/6
f 116/3/6 117/3/6 119/3/6
f 119/3/6 118/3/6 120/3/6
f 121/3/6 122/3/6 125/3/6
f 122/1/6 123/1/6 125/1/6
f 123/3/6 124/3/6 126/3/6
f 125/1/6 123/1/6 126/1/6
f 121/3/6 125/3/6 127/3/6
f 125/3/6 126/3/6 127/3/6
f 126/3/6 124/3/6 128/3/6
f 127/3/6 126/3/6 128/3/6
