# MagicaVoxel @ Ephtracy

# group
o 

# material
mtllib head.mtl
usemtl palette

# normals
vn 1 0 0
vn -1 0 0
vn 0 0 -1
vn 0 0 1
vn 0 -1 0
vn 0 1 0

# texcoords
vt 0.201172 0.5
vt 0.228516 0.5
vt 0.369141 0.5
vt 0.517578 0.5
vt 0.537109 0.5
vt 0.958984 0.5

# verts
v 0.5 -0.5 -0.5
v 0.5 -0.5 0.5
v 0.5 -0.3 0.2
v 0.5 -0.3 0.5
v 0.5 -0.2 -0.2
v 0.5 -0.2 0.2
v 0.5 0 -0.4
v 0.5 0 -0.2
v 0.5 0.3 -0.5
v 0.5 0.3 -0.4
v 0.5 0.5 -0.5
v 0.5 0.5 0.5
v -0.4 -0.4 -0.4
v -0.4 -0.4 0.4
v -0.4 -0.3 0.2
v -0.4 -0.3 0.4
v -0.4 -0.2 -0.2
v -0.4 -0.2 0.2
v -0.4 0 -0.4
v -0.4 0 -0.2
v -0.4 0.2 -0.4
v -0.4 0.4 -0.4
v -0.4 0.4 0.4
v 0.4 -0.4 -0.4
v 0.4 -0.4 0.4
v 0.4 -0.3 0.2
v 0.4 -0.3 0.4
v 0.4 -0.2 -0.2
v 0.4 -0.2 0.2
v 0.4 0 -0.4
v 0.4 0 -0.2
v 0.4 0.2 -0.4
v 0.4 0.4 -0.4
v 0.4 0.4 0.4
v -0.5 -0.5 -0.5
v -0.5 -0.5 -0.4
v -0.5 -0.5 0.5
v -0.5 -0.4 -0.4
v -0.5 -0.4 0.5
v -0.5 -0.3 0.2
v -0.5 -0.3 0.5
v -0.5 -0.2 -0.2
v -0.5 -0.2 0.2
v -0.5 0 -0.4
v -0.5 0 -0.2
v -0.5 0.3 -0.5
v -0.5 0.3 -0.4
v -0.5 0.5 -0.5
v -0.5 0.5 0.5
v 0.5 -0.5 -0.5
v 0.5 0.3 -0.5
v 0.5 0.5 -0.5
v 0.4 0 -0.5
v 0.4 0.2 -0.5
v 0.4 0.3 -0.5
v 0.4 0.4 -0.5
v 0.3 -0.5 -0.5
v 0.3 -0.3 -0.5
v 0.3 0 -0.5
v 0.3 0.2 -0.5
v 0.1 -0.4 -0.5
v 0.1 -0.3 -0.5
v 0.1 -0.1 -0.5
v 0.1 0 -0.5
v 0.1 0.2 -0.5
v -0.1 -0.4 -0.5
v -0.1 -0.3 -0.5
v -0.1 -0.1 -0.5
v -0.1 0 -0.5
v -0.1 0.2 -0.5
v -0.3 -0.5 -0.5
v -0.3 -0.3 -0.5
v -0.3 0 -0.5
v -0.3 0.2 -0.5
v -0.4 0 -0.5
v -0.4 0.2 -0.5
v -0.4 0.3 -0.5
v -0.4 0.4 -0.5
v -0.5 -0.5 -0.5
v -0.5 0.3 -0.5
v -0.5 0.5 -0.5
v 0.4 -0.4 0.4
v 0.4 -0.3 0.4
v 0.4 0.4 0.4
v 0.3 -0.4 0.4
v 0.3 -0.3 0.4
v -0.4 -0.4 0.4
v -0.4 -0.3 0.4
v -0.4 0.4 0.4
v 0.4 -0.4 -0.4
v 0.4 0 -0.4
v 0.4 0.2 -0.4
v 0.4 0.4 -0.4
v 0.3 -0.4 -0.4
v 0.3 -0.3 -0.4
v 0.3 0 -0.4
v 0.3 0.2 -0.4
v 0.1 -0.4 -0.4
v 0.1 -0.3 -0.4
v 0.1 -0.1 -0.4
v 0.1 0 -0.4
v 0.1 0.2 -0.4
v -0.1 -0.4 -0.4
v -0.1 -0.3 -0.4
v -0.1 -0.1 -0.4
v -0.1 0 -0.4
v -0.1 0.2 -0.4
v -0.3 -0.4 -0.4
v -0.3 -0.3 -0.4
v -0.3 0 -0.4
v -0.3 0.2 -0.4
v -0.4 -0.4 -0.4
v -0.4 0 -0.4
v -0.4 0.2 -0.4
v -0.4 0.4 -0.4
v 0.5 -0.5 0.5
v 0.5 -0.3 0.5
v 0.5 0.5 0.5
v 0.4 -0.5 0.5
v 0.4 -0.4 0.5
v 0.3 -0.4 0.5
v 0.3 -0.3 0.5
v -0.4 -0.4 0.5
v -0.4 -0.3 0.5
v -0.5 -0.5 0.5
v -0.5 -0.4 0.5
v -0.5 -0.3 0.5
v -0.5 0.5 0.5
v 0.5 -0.5 -0.5
v 0.3 -0.5 -0.5
v -0.3 -0.5 -0.5
v -0.5 -0.5 -0.5
v 0.4 -0.5 -0.4
v 0.3 -0.5 -0.4
v -0.3 -0.5 -0.4
v -0.5 -0.5 -0.4
v 0.5 -0.5 0.5
v 0.4 -0.5 0.5
v -0.5 -0.5 0.5
v 0.4 0.4 -0.4
v -0.4 0.4 -0.4
v 0.4 0.4 0.4
v -0.4 0.4 0.4
v 0.4 -0.4 -0.4
v 0.3 -0.4 -0.4
v 0.1 -0.4 -0.4
v -0.1 -0.4 -0.4
v -0.3 -0.4 -0.4
v -0.4 -0.4 -0.4
v 0.4 -0.4 0.4
v 0.3 -0.4 0.4
v -0.4 -0.4 0.4
v 0.5 0.5 -0.5
v -0.5 0.5 -0.5
v 0.5 0.5 0.5
v -0.5 0.5 0.5

# faces
f 3/1/1 2/1/1 1/1/1
f 4/1/1 2/1/1 3/1/1
f 5/1/1 3/1/1 1/1/1
f 6/3/1 4/3/1 3/3/1
f 6/1/1 3/1/1 5/1/1
f 7/1/1 5/1/1 1/1/1
f 8/3/1 6/3/1 5/3/1
f 8/1/1 5/1/1 7/1/1
f 9/1/1 7/1/1 1/1/1
f 10/3/1 8/3/1 7/3/1
f 10/1/1 7/1/1 9/1/1
f 11/3/1 10/3/1 9/3/1
f 12/3/1 4/3/1 6/3/1
f 12/3/1 10/3/1 11/3/1
f 12/3/1 6/3/1 8/3/1
f 12/3/1 8/3/1 10/3/1
f 15/1/1 14/1/1 13/1/1
f 16/1/1 14/1/1 15/1/1
f 17/1/1 15/1/1 13/1/1
f 18/3/1 16/3/1 15/3/1
f 18/1/1 15/1/1 17/1/1
f 19/1/1 17/1/1 13/1/1
f 20/3/1 18/3/1 17/3/1
f 20/1/1 17/1/1 19/1/1
f 21/3/1 20/3/1 19/3/1
f 22/3/1 20/3/1 21/3/1
f 23/3/1 16/3/1 18/3/1
f 23/3/1 20/3/1 22/3/1
f 23/3/1 18/3/1 20/3/1
f 24/1/2 25/1/2 26/1/2
f 26/1/2 25/1/2 27/1/2
f 24/1/2 26/1/2 28/1/2
f 26/3/2 27/3/2 29/3/2
f 28/1/2 26/1/2 29/1/2
f 24/1/2 28/1/2 30/1/2
f 28/3/2 29/3/2 31/3/2
f 30/1/2 28/1/2 31/1/2
f 30/3/2 31/3/2 32/3/2
f 32/3/2 31/3/2 33/3/2
f 29/3/2 27/3/2 34/3/2
f 33/3/2 31/3/2 34/3/2
f 31/3/2 29/3/2 34/3/2
f 35/1/2 36/1/2 38/1/2
f 36/3/2 37/3/2 38/3/2
f 38/3/2 37/3/2 39/3/2
f 38/1/2 39/1/2 40/1/2
f 40/1/2 39/1/2 41/1/2
f 38/1/2 40/1/2 42/1/2
f 40/3/2 41/3/2 43/3/2
f 42/1/2 40/1/2 43/1/2
f 35/1/2 38/1/2 44/1/2
f 38/1/2 42/1/2 44/1/2
f 42/3/2 43/3/2 45/3/2
f 44/1/2 42/1/2 45/1/2
f 35/1/2 44/1/2 46/1/2
f 44/3/2 45/3/2 47/3/2
f 46/1/2 44/1/2 47/1/2
f 46/3/2 47/3/2 48/3/2
f 43/3/2 41/3/2 49/3/2
f 48/3/2 47/3/2 49/3/2
f 45/3/2 43/3/2 49/3/2
f 47/3/2 45/3/2 49/3/2
f 53/1/3 51/1/3 50/1/3
f 54/1/3 51/1/3 53/1/3
f 55/3/3 52/3/3 51/3/3
f 55/1/3 51/1/3 54/1/3
f 56/3/3 52/3/3 55/3/3
f 57/1/3 53/1/3 50/1/3
f 58/1/3 53/1/3 57/1/3
f 59/6/3 54/6/3 53/6/3
f 59/1/3 53/1/3 58/1/3
f 60/1/3 55/1/3 54/1/3
f 60/6/3 54/6/3 59/6/3
f 60/1/3 56/1/3 55/1/3
f 61/5/3 58/5/3 57/5/3
f 62/1/3 59/1/3 58/1/3
f 62/5/3 58/5/3 61/5/3
f 63/1/3 59/1/3 62/1/3
f 64/4/3 60/4/3 59/4/3
f 64/1/3 59/1/3 63/1/3
f 65/1/3 56/1/3 60/1/3
f 65/4/3 60/4/3 64/4/3
f 66/5/3 61/5/3 57/5/3
f 66/1/3 62/1/3 61/1/3
f 67/2/3 63/2/3 62/2/3
f 67/1/3 62/1/3 66/1/3
f 68/1/3 64/1/3 63/1/3
f 68/2/3 63/2/3 67/2/3
f 68/1/3 65/1/3 64/1/3
f 69/1/3 65/1/3 68/1/3
f 70/1/3 56/1/3 65/1/3
f 70/1/3 65/1/3 69/1/3
f 71/5/3 67/5/3 66/5/3
f 71/5/3 66/5/3 57/5/3
f 72/1/3 69/1/3 68/1/3
f 72/5/3 67/5/3 71/5/3
f 72/1/3 68/1/3 67/1/3
f 73/4/3 70/4/3 69/4/3
f 73/1/3 69/1/3 72/1/3
f 74/1/3 56/1/3 70/1/3
f 74/4/3 70/4/3 73/4/3
f 75/1/3 73/1/3 72/1/3
f 75/1/3 72/1/3 71/1/3
f 75/6/3 74/6/3 73/6/3
f 76/1/3 56/1/3 74/1/3
f 76/6/3 74/6/3 75/6/3
f 77/1/3 56/1/3 76/1/3
f 78/3/3 52/3/3 56/3/3
f 78/1/3 56/1/3 77/1/3
f 79/1/3 75/1/3 71/1/3
f 79/1/3 77/1/3 76/1/3
f 79/1/3 76/1/3 75/1/3
f 80/3/3 78/3/3 77/3/3
f 80/1/3 77/1/3 79/1/3
f 81/3/3 52/3/3 78/3/3
f 81/3/3 78/3/3 80/3/3
f 85/1/3 83/1/3 82/1/3
f 86/3/3 84/3/3 83/3/3
f 86/1/3 83/1/3 85/1/3
f 87/3/3 86/3/3 85/3/3
f 88/3/3 84/3/3 86/3/3
f 88/3/3 86/3/3 87/3/3
f 89/3/3 84/3/3 88/3/3
f 90/1/4 91/1/4 94/1/4
f 94/1/4 91/1/4 95/1/4
f 91/6/4 92/6/4 96/6/4
f 95/1/4 91/1/4 96/1/4
f 92/1/4 93/1/4 97/1/4
f 96/6/4 92/6/4 97/6/4
f 94/5/4 95/5/4 98/5/4
f 95/1/4 96/1/4 99/1/4
f 98/5/4 95/5/4 99/5/4
f 99/1/4 96/1/4 100/1/4
f 96/4/4 97/4/4 101/4/4
f 100/1/4 96/1/4 101/1/4
f 97/1/4 93/1/4 102/1/4
f 101/4/4 97/4/4 102/4/4
f 98/1/4 99/1/4 103/1/4
f 99/2/4 100/2/4 104/2/4
f 103/1/4 99/1/4 104/1/4
f 100/1/4 101/1/4 105/1/4
f 104/2/4 100/2/4 105/2/4
f 101/1/4 102/1/4 105/1/4
f 105/1/4 102/1/4 106/1/4
f 102/1/4 93/1/4 107/1/4
f 106/1/4 102/1/4 107/1/4
f 103/5/4 104/5/4 108/5/4
f 105/1/4 106/1/4 109/1/4
f 108/5/4 104/5/4 109/5/4
f 104/1/4 105/1/4 109/1/4
f 106/4/4 107/4/4 110/4/4
f 109/1/4 106/1/4 110/1/4
f 107/1/4 93/1/4 111/1/4
f 110/4/4 107/4/4 111/4/4
f 109/1/4 110/1/4 112/1/4
f 108/1/4 109/1/4 112/1/4
f 110/6/4 111/6/4 113/6/4
f 112/1/4 110/1/4 113/1/4
f 111/1/4 93/1/4 114/1/4
f 113/6/4 111/6/4 114/6/4
f 114/1/4 93/1/4 115/1/4
f 116/1/4 117/1/4 119/1/4
f 119/1/4 117/1/4 120/1/4
f 119/3/4 120/3/4 121/3/4
f 120/1/4 117/1/4 121/1/4
f 117/3/4 118/3/4 122/3/4
f 121/1/4 117/1/4 122/1/4
f 119/3/4 121/3/4 123/3/4
f 121/3/4 122/3/4 123/3/4
f 122/3/4 118/3/4 124/3/4
f 123/3/4 122/3/4 124/3/4
f 119/3/4 123/3/4 125/3/4
f 123/1/4 124/1/4 126/1/4
f 125/3/4 123/3/4 126/3/4
f 124/3/4 118/3/4 127/3/4
f 126/1/4 124/1/4 127/1/4
f 127/3/4 118/3/4 128/3/4
f 133/1/5 130/1/5 129/1/5
f 134/5/5 131/5/5 130/5/5
f 134/1/5 130/1/5 133/1/5
f 135/1/5 132/1/5 131/1/5
f 135/5/5 131/5/5 134/5/5
f 136/1/5 132/1/5 135/1/5
f 137/1/5 133/1/5 129/1/5
f 138/3/5 134/3/5 133/3/5
f 138/1/5 133/1/5 137/1/5
f 138/3/5 135/3/5 134/3/5
f 138/3/5 136/3/5 135/3/5
f 139/3/5 136/3/5 138/3/5
f 142/3/5 141/3/5 140/3/5
f 143/3/5 141/3/5 142/3/5
f 144/3/6 145/3/6 150/3/6
f 148/3/6 149/3/6 150/3/6
f 147/3/6 148/3/6 150/3/6
f 146/3/6 147/3/6 150/3/6
f 145/3/6 146/3/6 150/3/6
f 150/3/6 149/3/6 151/3/6
f 151/3/6 149/3/6 152/3/6
f 153/3/6 154/3/6 155/3/6
f 155/3/6 154/3/6 156/3/6
