# MagicaVoxel @ Ephtracy

# group
o 

# material
mtllib torso.mtl
usemtl palette

# normals
vn 1 0 0
vn -1 0 0
vn 0 0 -1
vn 0 0 1
vn 0 -1 0
vn 0 1 0

# texcoords
vt 0.173828 0.5
vt 0.587891 0.5
vt 0.658203 0.5
vt 0.791016 0.5

# verts
v 0.5 -0.5 -0.5
v 0.5 -0.5 0.5
v 0.5 -0.4 -0.5
v 0.5 -0.4 0.5
v 0.5 0.5 -0.5
v 0.5 0.5 0.5
v -0.4 -0.4 -0.4
v -0.4 -0.4 0.4
v -0.4 -0.3 -0.4
v -0.4 -0.3 0.4
v -0.4 0.4 -0.4
v -0.4 0.4 0.4
v 0.4 -0.4 -0.4
v 0.4 -0.4 0.4
v 0.4 -0.3 -0.4
v 0.4 0.4 -0.4
v 0.4 0.4 0.4
v -0.5 -0.5 -0.5
v -0.5 -0.5 -0.4
v -0.5 -0.5 0.5
v -0.5 -0.4 -0.5
v -0.5 -0.4 -0.4
v -0.5 -0.4 0.5
v -0.5 -0.3 -0.4
v -0.5 -0.3 0.5
v -0.5 0.5 -0.5
v -0.5 0.5 0.5
v 0.5 -0.5 -0.5
v 0.5 -0.4 -0.5
v 0.5 0.5 -0.5
v 0.4 -0.4 -0.5
v 0.4 -0.3 -0.5
v 0.2 0.4 -0.5
v 0.2 0.5 -0.5
v 0.1 -0.2 -0.5
v 0.1 0 -0.5
v 0.1 0.2 -0.5
v 0.1 0.3 -0.5
v 0.1 0.4 -0.5
v 0 -0.1 -0.5
v 0 0 -0.5
v 0 0.1 -0.5
v -0.1 0 -0.5
v -0.1 0.1 -0.5
v -0.1 0.2 -0.5
v -0.1 0.3 -0.5
v -0.2 -0.2 -0.5
v -0.2 -0.1 -0.5
v -0.2 0.1 -0.5
v -0.2 0.2 -0.5
v -0.2 0.3 -0.5
v -0.2 0.4 -0.5
v -0.3 0.4 -0.5
v -0.3 0.5 -0.5
v -0.4 -0.4 -0.5
v -0.4 -0.3 -0.5
v -0.5 -0.5 -0.5
v -0.5 -0.4 -0.5
v -0.5 0.5 -0.5
v 0.4 -0.4 0.4
v 0.4 0.4 0.4
v -0.4 -0.4 0.4
v -0.4 -0.3 0.4
v -0.4 0.4 0.4
v 0.4 -0.4 -0.4
v 0.4 -0.3 -0.4
v 0.4 0.4 -0.4
v 0.1 -0.2 -0.4
v 0.1 0 -0.4
v 0.1 0.2 -0.4
v 0.1 0.3 -0.4
v 0.1 0.4 -0.4
v 0 -0.1 -0.4
v 0 0 -0.4
v 0 0.1 -0.4
v -0.1 0 -0.4
v -0.1 0.1 -0.4
v -0.1 0.2 -0.4
v -0.1 0.3 -0.4
v -0.2 -0.2 -0.4
v -0.2 -0.1 -0.4
v -0.2 0.1 -0.4
v -0.2 0.2 -0.4
v -0.2 0.3 -0.4
v -0.2 0.4 -0.4
v -0.4 -0.4 -0.4
v -0.4 -0.3 -0.4
v -0.4 0.4 -0.4
v 0.5 -0.5 0.5
v 0.5 -0.4 0.5
v 0.5 0.5 0.5
v 0.4 -0.5 0.5
v 0.4 -0.4 0.5
v -0.4 -0.4 0.5
v -0.4 -0.3 0.5
v -0.5 -0.5 0.5
v -0.5 -0.4 0.5
v -0.5 -0.3 0.5
v -0.5 0.5 0.5
v 0.5 -0.5 -0.5
v -0.5 -0.5 -0.5
v 0.4 -0.5 -0.4
v -0.5 -0.5 -0.4
v 0.5 -0.5 0.5
v 0.4 -0.5 0.5
v -0.5 -0.5 0.5
v 0.4 0.4 -0.4
v 0.1 0.4 -0.4
v -0.2 0.4 -0.4
v -0.4 0.4 -0.4
v 0.4 0.4 0.4
v -0.4 0.4 0.4
v 0.4 -0.4 -0.4
v -0.4 -0.4 -0.4
v 0.4 -0.4 0.4
v -0.4 -0.4 0.4
v 0.5 0.5 -0.5
v 0.2 0.5 -0.5
v -0.3 0.5 -0.5
v -0.5 0.5 -0.5
v 0.2 0.5 -0.4
v -0.3 0.5 -0.4
v 0.5 0.5 0.5
v -0.5 0.5 0.5

# faces
f 3/3/1 2/3/1 1/3/1
f 4/3/1 2/3/1 3/3/1
f 5/2/1 4/2/1 3/2/1
f 6/2/1 4/2/1 5/2/1
f 9/3/1 8/3/1 7/3/1
f 10/3/1 8/3/1 9/3/1
f 11/2/1 10/2/1 9/2/1
f 12/2/1 10/2/1 11/2/1
f 13/2/2 14/2/2 15/2/2
f 15/2/2 14/2/2 16/2/2
f 16/2/2 14/2/2 17/2/2
f 18/3/2 19/3/2 21/3/2
f 19/2/2 20/2/2 22/2/2
f 21/3/2 19/3/2 22/3/2
f 22/2/2 20/2/2 23/2/2
f 21/2/2 22/2/2 24/2/2
f 22/3/2 23/3/2 24/3/2
f 24/3/2 23/3/2 25/3/2
f 21/2/2 24/2/2 26/2/2
f 24/2/2 25/2/2 26/2/2
f 26/2/2 25/2/2 27/2/2
f 31/3/3 29/3/3 28/3/3
f 31/2/3 30/2/3 29/2/3
f 32/2/3 30/2/3 31/2/3
f 33/2/3 30/2/3 32/2/3
f 34/2/3 30/2/3 33/2/3
f 35/2/3 33/2/3 32/2/3
f 36/2/3 33/2/3 35/2/3
f 37/2/3 33/2/3 36/2/3
f 38/2/3 33/2/3 37/2/3
f 39/1/3 34/1/3 33/1/3
f 39/2/3 33/2/3 38/2/3
f 40/4/3 36/4/3 35/4/3
f 41/2/3 37/2/3 36/2/3
f 41/4/3 36/4/3 40/4/3
f 42/2/3 37/2/3 41/2/3
f 43/2/3 41/2/3 40/2/3
f 43/4/3 42/4/3 41/4/3
f 44/2/3 37/2/3 42/2/3
f 44/4/3 42/4/3 43/4/3
f 45/4/3 38/4/3 37/4/3
f 45/2/3 37/2/3 44/2/3
f 46/1/3 39/1/3 38/1/3
f 46/4/3 38/4/3 45/4/3
f 47/2/3 35/2/3 32/2/3
f 47/4/3 40/4/3 35/4/3
f 48/2/3 44/2/3 43/2/3
f 48/4/3 40/4/3 47/4/3
f 48/2/3 43/2/3 40/2/3
f 49/4/3 45/4/3 44/4/3
f 49/2/3 44/2/3 48/2/3
f 50/2/3 46/2/3 45/2/3
f 50/4/3 45/4/3 49/4/3
f 51/1/3 39/1/3 46/1/3
f 51/2/3 46/2/3 50/2/3
f 52/1/3 34/1/3 39/1/3
f 52/1/3 39/1/3 51/1/3
f 53/2/3 50/2/3 49/2/3
f 53/1/3 34/1/3 52/1/3
f 53/2/3 52/2/3 51/2/3
f 53/2/3 48/2/3 47/2/3
f 53/2/3 49/2/3 48/2/3
f 53/2/3 51/2/3 50/2/3
f 54/1/3 34/1/3 53/1/3
f 55/3/3 31/3/3 28/3/3
f 55/3/3 32/3/3 31/3/3
f 56/2/3 54/2/3 53/2/3
f 56/3/3 32/3/3 55/3/3
f 56/2/3 47/2/3 32/2/3
f 56/2/3 53/2/3 47/2/3
f 57/3/3 55/3/3 28/3/3
f 58/2/3 56/2/3 55/2/3
f 58/3/3 55/3/3 57/3/3
f 59/2/3 54/2/3 56/2/3
f 59/2/3 56/2/3 58/2/3
f 62/2/3 61/2/3 60/2/3
f 63/2/3 61/2/3 62/2/3
f 64/2/3 61/2/3 63/2/3
f 66/2/4 67/2/4 68/2/4
f 68/2/4 67/2/4 69/2/4
f 69/2/4 67/2/4 70/2/4
f 70/2/4 67/2/4 71/2/4
f 71/2/4 67/2/4 72/2/4
f 68/4/4 69/4/4 73/4/4
f 69/2/4 70/2/4 74/2/4
f 73/4/4 69/4/4 74/4/4
f 74/2/4 70/2/4 75/2/4
f 73/2/4 74/2/4 76/2/4
f 74/4/4 75/4/4 76/4/4
f 75/2/4 70/2/4 77/2/4
f 76/4/4 75/4/4 77/4/4
f 70/4/4 71/4/4 78/4/4
f 77/2/4 70/2/4 78/2/4
f 71/1/4 72/1/4 79/1/4
f 78/4/4 71/4/4 79/4/4
f 66/2/4 68/2/4 80/2/4
f 68/4/4 73/4/4 80/4/4
f 76/2/4 77/2/4 81/2/4
f 80/4/4 73/4/4 81/4/4
f 73/2/4 76/2/4 81/2/4
f 77/4/4 78/4/4 82/4/4
f 81/2/4 77/2/4 82/2/4
f 78/2/4 79/2/4 83/2/4
f 82/4/4 78/4/4 83/4/4
f 79/1/4 72/1/4 84/1/4
f 83/2/4 79/2/4 84/2/4
f 84/1/4 72/1/4 85/1/4
f 65/3/4 66/3/4 86/3/4
f 82/2/4 83/2/4 87/2/4
f 86/3/4 66/3/4 87/3/4
f 81/2/4 82/2/4 87/2/4
f 84/2/4 85/2/4 87/2/4
f 83/2/4 84/2/4 87/2/4
f 80/2/4 81/2/4 87/2/4
f 66/2/4 80/2/4 87/2/4
f 87/2/4 85/2/4 88/2/4
f 89/3/4 90/3/4 92/3/4
f 90/2/4 91/2/4 93/2/4
f 92/3/4 90/3/4 93/3/4
f 92/2/4 93/2/4 94/2/4
f 93/2/4 91/2/4 94/2/4
f 94/2/4 91/2/4 95/2/4
f 92/2/4 94/2/4 96/2/4
f 94/3/4 95/3/4 97/3/4
f 96/2/4 94/2/4 97/2/4
f 95/2/4 91/2/4 98/2/4
f 97/3/4 95/3/4 98/3/4
f 98/2/4 91/2/4 99/2/4
f 102/3/5 101/3/5 100/3/5
f 103/3/5 101/3/5 102/3/5
f 104/3/5 102/3/5 100/3/5
f 105/2/5 103/2/5 102/2/5
f 105/3/5 102/3/5 104/3/5
f 106/2/5 103/2/5 105/2/5
f 111/2/5 108/2/5 107/2/5
f 111/2/5 110/2/5 109/2/5
f 111/2/5 109/2/5 108/2/5
f 112/2/5 110/2/5 111/2/5
f 113/2/6 114/2/6 115/2/6
f 115/2/6 114/2/6 116/2/6
f 117/2/6 118/2/6 121/2/6
f 118/1/6 119/1/6 121/1/6
f 119/2/6 120/2/6 122/2/6
f 121/1/6 119/1/6 122/1/6
f 117/2/6 121/2/6 123/2/6
f 121/2/6 122/2/6 123/2/6
f 122/2/6 120/2/6 124/2/6
f 123/2/6 122/2/6 124/2/6
