# MagicaVoxel @ Ephtracy

# group
o 

# material
mtllib head.mtl
usemtl palette

# normals
vn 1 0 0
vn -1 0 0
vn 0 0 -1
vn 0 0 1
vn 0 -1 0
vn 0 1 0

# texcoords
vt 0.0332031 0.5
vt 0.0566406 0.5
vt 0.0878906 0.5
vt 0.900391 0.5
vt 0.958984 0.5

# verts
v 0.5 -0.5 -0.5
v 0.5 -0.5 0.5
v 0.5 -0.4 0.2
v 0.5 -0.4 0.4
v 0.5 -0.2 0
v 0.5 -0.2 0.2
v 0.5 -0.2 0.4
v 0.5 -0.2 0.5
v 0.5 0 -0.2
v 0.5 0 0
v 0.5 0.1 -0.4
v 0.5 0.1 -0.2
v 0.5 0.2 -0.5
v 0.5 0.2 -0.4
v 0.5 0.5 -0.5
v 0.5 0.5 0.5
v -0.4 -0.4 -0.4
v -0.4 -0.4 0.2
v -0.4 -0.4 0.4
v -0.4 -0.3 0.1
v -0.4 -0.3 0.2
v -0.4 -0.2 0
v -0.4 -0.2 0.1
v -0.4 -0.2 0.4
v -0.4 -0.1 -0.4
v -0.4 -0.1 -0.1
v -0.4 -0.1 0
v -0.4 0 -0.3
v -0.4 0 -0.1
v -0.4 0.1 -0.4
v -0.4 0.1 -0.3
v -0.4 0.2 -0.4
v -0.4 0.4 -0.4
v -0.4 0.4 0.4
v 0.4 -0.4 -0.4
v 0.4 -0.4 0.2
v 0.4 -0.4 0.4
v 0.4 -0.2 0
v 0.4 -0.2 0.2
v 0.4 -0.2 0.4
v 0.4 -0.1 -0.4
v 0.4 0 -0.2
v 0.4 0 0
v 0.4 0.1 -0.4
v 0.4 0.1 -0.2
v 0.4 0.2 -0.4
v 0.4 0.4 -0.4
v 0.4 0.4 0.4
v -0.5 -0.5 -0.5
v -0.5 -0.5 0.5
v -0.5 -0.4 0.2
v -0.5 -0.4 0.4
v -0.5 -0.3 0.1
v -0.5 -0.3 0.2
v -0.5 -0.2 0
v -0.5 -0.2 0.1
v -0.5 -0.2 0.4
v -0.5 -0.2 0.5
v -0.5 -0.1 -0.1
v -0.5 -0.1 0
v -0.5 0 -0.3
v -0.5 0 -0.1
v -0.5 0.1 -0.4
v -0.5 0.1 -0.3
v -0.5 0.2 -0.5
v -0.5 0.2 -0.4
v -0.5 0.5 -0.5
v -0.5 0.5 0.5
v 0.5 -0.5 -0.5
v 0.5 0.2 -0.5
v 0.5 0.5 -0.5
v 0.4 -0.1 -0.5
v 0.4 0.1 -0.5
v 0.3 -0.1 -0.5
v 0.3 0.1 -0.5
v 0.3 0.2 -0.5
v 0.3 0.3 -0.5
v 0.2 -0.4 -0.5
v 0.2 -0.2 -0.5
v 0.1 -0.1 -0.5
v 0.1 0.1 -0.5
v 0.1 0.3 -0.5
v 0.1 0.4 -0.5
v -0.1 -0.1 -0.5
v -0.1 0.1 -0.5
v -0.1 0.3 -0.5
v -0.1 0.4 -0.5
v -0.2 -0.4 -0.5
v -0.2 -0.2 -0.5
v -0.3 -0.1 -0.5
v -0.3 0.1 -0.5
v -0.3 0.2 -0.5
v -0.3 0.3 -0.5
v -0.4 -0.1 -0.5
v -0.4 0.1 -0.5
v -0.5 -0.5 -0.5
v -0.5 0.2 -0.5
v -0.5 0.5 -0.5
v 0.4 -0.4 0.4
v 0.4 -0.2 0.4
v 0.4 0.4 0.4
v 0.3 -0.3 0.4
v 0.3 -0.2 0.4
v 0.2 -0.4 0.4
v 0.2 -0.3 0.4
v -0.2 -0.4 0.4
v -0.2 -0.3 0.4
v -0.3 -0.3 0.4
v -0.3 -0.2 0.4
v -0.4 -0.4 0.4
v -0.4 -0.2 0.4
v -0.4 0.4 0.4
v 0.4 -0.4 -0.4
v 0.4 -0.1 -0.4
v 0.4 0.1 -0.4
v 0.4 0.2 -0.4
v 0.4 0.4 -0.4
v 0.3 -0.1 -0.4
v 0.3 0.1 -0.4
v 0.3 0.2 -0.4
v 0.3 0.3 -0.4
v 0.2 -0.4 -0.4
v 0.2 -0.2 -0.4
v 0.1 -0.1 -0.4
v 0.1 0.1 -0.4
v 0.1 0.3 -0.4
v 0.1 0.4 -0.4
v -0.1 -0.1 -0.4
v -0.1 0.1 -0.4
v -0.1 0.3 -0.4
v -0.1 0.4 -0.4
v -0.2 -0.4 -0.4
v -0.2 -0.2 -0.4
v -0.3 -0.1 -0.4
v -0.3 0.1 -0.4
v -0.3 0.2 -0.4
v -0.3 0.3 -0.4
v -0.4 -0.4 -0.4
v -0.4 -0.1 -0.4
v -0.4 0.1 -0.4
v -0.4 0.2 -0.4
v -0.4 0.4 -0.4
v 0.5 -0.5 0.5
v 0.5 -0.2 0.5
v 0.5 0.5 0.5
v 0.3 -0.3 0.5
v 0.3 -0.2 0.5
v 0.2 -0.4 0.5
v 0.2 -0.3 0.5
v -0.2 -0.4 0.5
v -0.2 -0.3 0.5
v -0.3 -0.3 0.5
v -0.3 -0.2 0.5
v -0.5 -0.5 0.5
v -0.5 -0.2 0.5
v -0.5 0.5 0.5
v 0.5 -0.5 -0.5
v -0.5 -0.5 -0.5
v 0.5 -0.5 0.5
v -0.5 -0.5 0.5
v 0.4 0.4 -0.4
v 0.1 0.4 -0.4
v -0.1 0.4 -0.4
v -0.4 0.4 -0.4
v 0.4 0.4 0.4
v -0.4 0.4 0.4
v 0.4 -0.4 -0.4
v 0.2 -0.4 -0.4
v -0.2 -0.4 -0.4
v -0.4 -0.4 -0.4
v 0.4 -0.4 0.2
v -0.4 -0.4 0.2
v 0.4 -0.4 0.4
v 0.2 -0.4 0.4
v -0.2 -0.4 0.4
v -0.4 -0.4 0.4
v 0.5 0.5 -0.5
v -0.5 0.5 -0.5
v 0.5 0.5 0.5
v -0.5 0.5 0.5

# faces
f 3/1/1 2/1/1 1/1/1
f 4/1/1 2/1/1 3/1/1
f 5/1/1 3/1/1 1/1/1
f 6/3/1 4/3/1 3/3/1
f 6/1/1 3/1/1 5/1/1
f 7/1/1 2/1/1 4/1/1
f 7/3/1 4/3/1 6/3/1
f 8/1/1 2/1/1 7/1/1
f 9/1/1 5/1/1 1/1/1
f 10/3/1 6/3/1 5/3/1
f 10/1/1 5/1/1 9/1/1
f 10/3/1 7/3/1 6/3/1
f 10/3/1 8/3/1 7/3/1
f 11/1/1 9/1/1 1/1/1
f 12/3/1 10/3/1 9/3/1
f 12/1/1 9/1/1 11/1/1
f 13/1/1 11/1/1 1/1/1
f 14/3/1 12/3/1 11/3/1
f 14/1/1 11/1/1 13/1/1
f 15/3/1 14/3/1 13/3/1
f 16/3/1 8/3/1 10/3/1
f 16/3/1 14/3/1 15/3/1
f 16/3/1 10/3/1 12/3/1
f 16/3/1 12/3/1 14/3/1
f 20/1/1 18/1/1 17/1/1
f 21/3/1 19/3/1 18/3/1
f 21/1/1 18/1/1 20/1/1
f 22/1/1 20/1/1 17/1/1
f 23/3/1 21/3/1 20/3/1
f 23/1/1 20/1/1 22/1/1
f 24/3/1 19/3/1 21/3/1
f 24/3/1 21/3/1 23/3/1
f 25/1/1 22/1/1 17/1/1
f 26/1/1 22/1/1 25/1/1
f 27/3/1 23/3/1 22/3/1
f 27/1/1 22/1/1 26/1/1
f 27/3/1 24/3/1 23/3/1
f 28/1/1 26/1/1 25/1/1
f 29/3/1 27/3/1 26/3/1
f 29/1/1 26/1/1 28/1/1
f 30/1/1 28/1/1 25/1/1
f 31/3/1 29/3/1 28/3/1
f 31/1/1 28/1/1 30/1/1
f 32/3/1 31/3/1 30/3/1
f 33/3/1 31/3/1 32/3/1
f 34/3/1 24/3/1 27/3/1
f 34/3/1 31/3/1 33/3/1
f 34/3/1 27/3/1 29/3/1
f 34/3/1 29/3/1 31/3/1
f 35/1/2 36/1/2 38/1/2
f 36/3/2 37/3/2 39/3/2
f 38/1/2 36/1/2 39/1/2
f 39/3/2 37/3/2 40/3/2
f 35/1/2 38/1/2 41/1/2
f 41/1/2 38/1/2 42/1/2
f 38/3/2 39/3/2 43/3/2
f 42/1/2 38/1/2 43/1/2
f 39/3/2 40/3/2 43/3/2
f 41/1/2 42/1/2 44/1/2
f 42/3/2 43/3/2 45/3/2
f 44/1/2 42/1/2 45/1/2
f 44/3/2 45/3/2 46/3/2
f 46/3/2 45/3/2 47/3/2
f 43/3/2 40/3/2 48/3/2
f 47/3/2 45/3/2 48/3/2
f 45/3/2 43/3/2 48/3/2
f 49/1/2 50/1/2 51/1/2
f 51/1/2 50/1/2 52/1/2
f 49/1/2 51/1/2 53/1/2
f 51/3/2 52/3/2 54/3/2
f 53/1/2 51/1/2 54/1/2
f 49/1/2 53/1/2 55/1/2
f 53/3/2 54/3/2 56/3/2
f 55/1/2 53/1/2 56/1/2
f 52/1/2 50/1/2 57/1/2
f 56/3/2 54/3/2 57/3/2
f 54/3/2 52/3/2 57/3/2
f 57/1/2 50/1/2 58/1/2
f 49/1/2 55/1/2 59/1/2
f 55/3/2 56/3/2 60/3/2
f 59/1/2 55/1/2 60/1/2
f 56/3/2 57/3/2 60/3/2
f 57/3/2 58/3/2 60/3/2
f 49/1/2 59/1/2 61/1/2
f 59/3/2 60/3/2 62/3/2
f 61/1/2 59/1/2 62/1/2
f 49/1/2 61/1/2 63/1/2
f 61/3/2 62/3/2 64/3/2
f 63/1/2 61/1/2 64/1/2
f 49/1/2 63/1/2 65/1/2
f 63/3/2 64/3/2 66/3/2
f 65/1/2 63/1/2 66/1/2
f 65/3/2 66/3/2 67/3/2
f 60/3/2 58/3/2 68/3/2
f 67/3/2 66/3/2 68/3/2
f 62/3/2 60/3/2 68/3/2
f 66/3/2 64/3/2 68/3/2
f 64/3/2 62/3/2 68/3/2
f 72/1/3 70/1/3 69/1/3
f 73/1/3 70/1/3 72/1/3
f 74/1/3 72/1/3 69/1/3
f 74/5/3 73/5/3 72/5/3
f 75/1/3 70/1/3 73/1/3
f 75/5/3 73/5/3 74/5/3
f 76/3/3 71/3/3 70/3/3
f 76/1/3 70/1/3 75/1/3
f 77/3/3 71/3/3 76/3/3
f 78/1/3 74/1/3 69/1/3
f 79/1/3 74/1/3 78/1/3
f 80/4/3 75/4/3 74/4/3
f 80/1/3 74/1/3 79/1/3
f 81/1/3 76/1/3 75/1/3
f 81/4/3 75/4/3 80/4/3
f 81/1/3 77/1/3 76/1/3
f 82/3/3 71/3/3 77/3/3
f 82/1/3 77/1/3 81/1/3
f 83/3/3 71/3/3 82/3/3
f 84/1/3 81/1/3 80/1/3
f 84/1/3 80/1/3 79/1/3
f 84/1/3 83/1/3 82/1/3
f 84/1/3 82/1/3 81/1/3
f 85/1/3 83/1/3 84/1/3
f 86/1/3 83/1/3 85/1/3
f 87/3/3 71/3/3 83/3/3
f 87/1/3 83/1/3 86/1/3
f 88/2/3 79/2/3 78/2/3
f 88/1/3 78/1/3 69/1/3
f 89/1/3 84/1/3 79/1/3
f 89/2/3 79/2/3 88/2/3
f 90/4/3 85/4/3 84/4/3
f 90/1/3 84/1/3 89/1/3
f 90/1/3 89/1/3 88/1/3
f 91/1/3 86/1/3 85/1/3
f 91/4/3 85/4/3 90/4/3
f 92/1/3 86/1/3 91/1/3
f 93/3/3 87/3/3 86/3/3
f 93/1/3 86/1/3 92/1/3
f 94/1/3 90/1/3 88/1/3
f 94/5/3 91/5/3 90/5/3
f 95/1/3 92/1/3 91/1/3
f 95/5/3 91/5/3 94/5/3
f 96/1/3 94/1/3 88/1/3
f 96/1/3 88/1/3 69/1/3
f 96/1/3 95/1/3 94/1/3
f 97/1/3 92/1/3 95/1/3
f 97/1/3 95/1/3 96/1/3
f 97/3/3 93/3/3 92/3/3
f 98/3/3 71/3/3 87/3/3
f 98/3/3 93/3/3 97/3/3
f 98/3/3 87/3/3 93/3/3
f 102/1/3 100/1/3 99/1/3
f 103/3/3 101/3/3 100/3/3
f 103/1/3 100/1/3 102/1/3
f 104/1/3 102/1/3 99/1/3
f 105/3/3 103/3/3 102/3/3
f 105/1/3 102/1/3 104/1/3
f 106/3/3 105/3/3 104/3/3
f 107/3/3 103/3/3 105/3/3
f 107/3/3 105/3/3 106/3/3
f 108/1/3 107/1/3 106/1/3
f 108/3/3 103/3/3 107/3/3
f 109/3/3 101/3/3 103/3/3
f 109/3/3 103/3/3 108/3/3
f 110/1/3 108/1/3 106/1/3
f 110/1/3 109/1/3 108/1/3
f 111/3/3 101/3/3 109/3/3
f 111/1/3 109/1/3 110/1/3
f 112/3/3 101/3/3 111/3/3
f 113/1/4 114/1/4 118/1/4
f 114/5/4 115/5/4 118/5/4
f 115/1/4 116/1/4 119/1/4
f 118/5/4 115/5/4 119/5/4
f 116/3/4 117/3/4 120/3/4
f 119/1/4 116/1/4 120/1/4
f 120/3/4 117/3/4 121/3/4
f 113/1/4 118/1/4 122/1/4
f 122/1/4 118/1/4 123/1/4
f 118/4/4 119/4/4 124/4/4
f 123/1/4 118/1/4 124/1/4
f 119/1/4 120/1/4 125/1/4
f 124/4/4 119/4/4 125/4/4
f 120/1/4 121/1/4 125/1/4
f 121/3/4 117/3/4 126/3/4
f 125/1/4 121/1/4 126/1/4
f 126/3/4 117/3/4 127/3/4
f 124/1/4 125/1/4 128/1/4
f 123/1/4 124/1/4 128/1/4
f 126/1/4 127/1/4 128/1/4
f 125/1/4 126/1/4 128/1/4
f 128/1/4 127/1/4 129/1/4
f 129/1/4 127/1/4 130/1/4
f 130/1/4 127/1/4 131/1/4
f 122/2/4 123/2/4 132/2/4
f 123/1/4 128/1/4 133/1/4
f 132/2/4 123/2/4 133/2/4
f 128/4/4 129/4/4 134/4/4
f 133/1/4 128/1/4 134/1/4
f 132/1/4 133/1/4 134/1/4
f 129/1/4 130/1/4 135/1/4
f 134/4/4 129/4/4 135/4/4
f 135/1/4 130/1/4 136/1/4
f 130/3/4 131/3/4 137/3/4
f 136/1/4 130/1/4 137/1/4
f 132/1/4 134/1/4 138/1/4
f 134/5/4 135/5/4 139/5/4
f 138/1/4 134/1/4 139/1/4
f 135/1/4 136/1/4 140/1/4
f 139/5/4 135/5/4 140/5/4
f 136/3/4 137/3/4 141/3/4
f 140/1/4 136/1/4 141/1/4
f 137/3/4 131/3/4 142/3/4
f 141/3/4 137/3/4 142/3/4
f 143/1/4 144/1/4 146/1/4
f 144/3/4 145/3/4 147/3/4
f 146/1/4 144/1/4 147/1/4
f 143/1/4 146/1/4 148/1/4
f 146/3/4 147/3/4 149/3/4
f 148/1/4 146/1/4 149/1/4
f 143/1/4 148/1/4 150/1/4
f 148/3/4 149/3/4 150/3/4
f 149/3/4 147/3/4 151/3/4
f 150/3/4 149/3/4 151/3/4
f 150/1/4 151/1/4 152/1/4
f 151/3/4 147/3/4 152/3/4
f 147/3/4 145/3/4 153/3/4
f 152/3/4 147/3/4 153/3/4
f 150/1/4 152/1/4 154/1/4
f 143/1/4 150/1/4 154/1/4
f 152/1/4 153/1/4 154/1/4
f 153/3/4 145/3/4 155/3/4
f 154/1/4 153/1/4 155/1/4
f 155/3/4 145/3/4 156/3/4
f 159/1/5 158/1/5 157/1/5
f 160/1/5 158/1/5 159/1/5
f 165/3/5 162/3/5 161/3/5
f 165/3/5 164/3/5 163/3/5
f 165/3/5 163/3/5 162/3/5
f 166/3/5 164/3/5 165/3/5
f 167/1/6 168/1/6 171/1/6
f 169/1/6 170/1/6 171/1/6
f 168/1/6 169/1/6 171/1/6
f 171/1/6 170/1/6 172/1/6
f 171/1/6 172/1/6 173/1/6
f 173/1/6 172/1/6 174/1/6
f 174/1/6 172/1/6 175/1/6
f 175/1/6 172/1/6 176/1/6
f 177/3/6 178/3/6 179/3/6
f 179/3/6 178/3/6 180/3/6
